# xmcd
#
# Track frame offsets: 
#        150
#        11557
#        25490
#        36636
#        49068
#        62858
#        78256
#        91527
#        103668
#        117892
#        132510
#        144406
#        157372
#        170572
#        182074
#        193589
#
# Disc length: 2776 seconds
#
# Revision: 2
# Processed by: cddbd v1.5.2PL0 Copyright (c) Steve Scherf et al.
# Submitted via: ExactAudioCopy v0.95b4
#
DISCID=e00ad610
DTITLE=Ella Fitzgerald - First Steps To Fame Vol.3
DYEAR=2002
DGENRE=Jazz
TTITLE0=It's Only A Papermoon
TTITLE1=In Each Life Some Rain Must Fall
TTITLE2=Petootiee Pie
TTITLE3=Ells
TTITLE4=My Man
TTITLE5=I Got A Guy
TTITLE6=This Love Of Mine
TTITLE7=Take Another Guess
TTITLE8=I Love You For Sentimental Reasons
TTITLE9=How High The Moon
TTITLE10=My Baby Likes To Be-Bop
TTITLE11=I Cried And Cried And Cried
TTITLE12=No Sense
TTITLE13=Robbin's Nest
TTITLE14=It's Too Soon To Know
TTITLE15=My Happiness
EXTD=YEAR: 2002
EXTT0=
EXTT1=
EXTT2=
EXTT3=
EXTT4=
EXTT5=
EXTT6=
EXTT7=
EXTT8=
EXTT9=
EXTT10=
EXTT11=
EXTT12=
EXTT13=
EXTT14=
EXTT15=
PLAYORDER=
